<svg width="24" height="24" viewBox="0 0 24 24" fill="none" xmlns="http://www.w3.org/2000/svg">
<path d="M11.6719 24H5.625C2.52338 24 0 21.4767 0 18.375V10.6875C0 7.58588 2.52338 5.0625 5.625 5.0625H18.375C21.4766 5.0625 24 7.58588 24 10.6875V14.4375C24 14.9553 23.5803 15.375 23.0625 15.375C22.5447 15.375 22.125 14.9553 22.125 14.4375V10.6875C22.125 8.61975 20.4427 6.9375 18.375 6.9375H5.625C3.55725 6.9375 1.875 8.61975 1.875 10.6875V18.375C1.875 20.4427 3.55725 22.125 5.625 22.125H11.6719C12.1897 22.125 12.6094 22.5447 12.6094 23.0625C12.6094 23.5803 12.1897 24 11.6719 24ZM6.14062 9.46875C5.49342 9.46875 4.96875 9.99342 4.96875 10.6406C4.96875 11.2878 5.49342 11.8125 6.14062 11.8125C6.78783 11.8125 7.3125 11.2878 7.3125 10.6406C7.3125 9.99342 6.78783 9.46875 6.14062 9.46875ZM10.1719 9.46875C9.52467 9.46875 9 9.99342 9 10.6406C9 11.2878 9.52467 11.8125 10.1719 11.8125C10.8191 11.8125 11.3438 11.2878 11.3438 10.6406C11.3438 9.99342 10.8191 9.46875 10.1719 9.46875ZM14.2031 9.46875C13.5559 9.46875 13.0312 9.99342 13.0312 10.6406C13.0312 11.2878 13.5559 11.8125 14.2031 11.8125C14.8503 11.8125 15.375 11.2878 15.375 10.6406C15.375 9.99342 14.8503 9.46875 14.2031 9.46875ZM6.14062 13.5C5.49342 13.5 4.96875 14.0247 4.96875 14.6719C4.96875 15.3191 5.49342 15.8438 6.14062 15.8438C6.78783 15.8438 7.3125 15.3191 7.3125 14.6719C7.3125 14.0247 6.78783 13.5 6.14062 13.5ZM6.14062 17.5312C5.49342 17.5312 4.96875 18.0559 4.96875 18.7031C4.96875 19.3503 5.49342 19.875 6.14062 19.875C6.78783 19.875 7.3125 19.3503 7.3125 18.7031C7.3125 18.0559 6.78783 17.5312 6.14062 17.5312ZM10.1719 13.5C9.52467 13.5 9 14.0247 9 14.6719C9 15.3191 9.52467 15.8438 10.1719 15.8438C10.8191 15.8438 11.3438 15.3191 11.3438 14.6719C11.3438 14.0247 10.8191 13.5 10.1719 13.5ZM10.1719 17.5312C9.52467 17.5312 9 18.0559 9 18.7031C9 19.3503 9.52467 19.875 10.1719 19.875C10.8191 19.875 11.3438 19.3503 11.3438 18.7031C11.3438 18.0559 10.8191 17.5312 10.1719 17.5312ZM14.2031 13.5C13.5559 13.5 13.0312 14.0247 13.0312 14.6719C13.0312 15.3191 13.5559 15.8438 14.2031 15.8438C14.8503 15.8438 15.375 15.3191 15.375 14.6719C15.375 14.0247 14.8503 13.5 14.2031 13.5ZM18.2344 13.5C17.5872 13.5 17.0625 14.0247 17.0625 14.6719C17.0625 15.3191 17.5872 15.8438 18.2344 15.8438C18.8816 15.8438 19.4062 15.3191 19.4062 14.6719C19.4062 14.0247 18.8816 13.5 18.2344 13.5Z" fill="#1A94FF"/>
<path d="M8.53125 3.75C8.01347 3.75 7.59375 3.33028 7.59375 2.8125C7.59375 2.29556 7.17319 1.875 6.65625 1.875C6.13931 1.875 5.71875 2.29556 5.71875 2.8125C5.71875 3.33028 5.29903 3.75 4.78125 3.75C4.26347 3.75 3.84375 3.33028 3.84375 2.8125C3.84375 1.26169 5.10544 0 6.65625 0C8.20706 0 9.46875 1.26169 9.46875 2.8125C9.46875 3.33028 9.04903 3.75 8.53125 3.75ZM20.25 2.8125C20.25 1.26169 18.9883 0 17.4375 0C15.8867 0 14.625 1.26169 14.625 2.8125C14.625 3.33028 15.0447 3.75 15.5625 3.75C16.0803 3.75 16.5 3.33028 16.5 2.8125C16.5 2.29556 16.9206 1.875 17.4375 1.875C17.9544 1.875 18.375 2.29556 18.375 2.8125C18.375 3.33028 18.7947 3.75 19.3125 3.75C19.8303 3.75 20.25 3.33028 20.25 2.8125ZM18.2344 9.46875C17.5872 9.46875 17.0625 9.99342 17.0625 10.6406C17.0625 11.2878 17.5872 11.8125 18.2344 11.8125C18.8816 11.8125 19.4062 11.2878 19.4062 10.6406C19.4062 9.99342 18.8816 9.46875 18.2344 9.46875ZM19.4598 23.1392L23.7272 18.8486C24.0923 18.4815 24.0907 17.8879 23.7236 17.5228C23.3565 17.1576 22.7629 17.1593 22.3978 17.5264L18.1293 21.818C17.9331 22.016 17.6728 22.125 17.3963 22.125C17.1199 22.125 16.8596 22.0159 16.6627 21.8174L14.3995 19.5387C14.0347 19.1714 13.4411 19.1693 13.0737 19.5342C12.7064 19.899 12.7043 20.4926 13.0692 20.86L15.3318 23.1381C15.8828 23.6939 16.616 24 17.3963 24C18.1767 24 18.9099 23.6939 19.4598 23.1392Z" fill="#1A94FF"/>
</svg>
