<svg width="20" height="20" viewBox="0 0 20 20" fill="none" xmlns="http://www.w3.org/2000/svg">
<g clip-path="url(#clip0_3_5032)">
<path d="M9.82157 19.9807H5.78815C4.715 19.9807 3.66571 19.6075 2.83361 18.9297C2.00152 18.2521 1.42361 17.3001 1.2063 16.2491C0.729961 13.9453 0.32984 11.4783 0.0171655 8.91652C-0.0637712 8.25335 0.144029 7.5859 0.587231 7.08531C1.03121 6.5839 1.66993 6.29629 2.33953 6.29629H13.2461C13.918 6.29629 14.5579 6.58557 15.0019 7.08995C15.446 7.5944 15.6518 8.26606 15.5666 8.9327C15.4251 10.039 15.2526 11.1459 15.0858 12.2164L15.0784 12.2644C15.012 12.6899 14.6134 12.9812 14.1878 12.9148C13.7623 12.8485 13.4712 12.4498 13.5374 12.0243L13.5449 11.9763C13.7101 10.9162 13.881 9.82004 14.0197 8.73499C14.0485 8.50938 13.9816 8.29113 13.8314 8.12041C13.6811 7.9498 13.4733 7.8558 13.2461 7.8558H2.33957C2.11286 7.8558 1.90518 7.94929 1.75485 8.11912C1.60525 8.28805 1.53792 8.50415 1.56518 8.72763C1.8727 11.247 2.26577 13.6713 2.73349 15.9334C3.03159 17.3749 4.31628 18.4212 5.78819 18.4212H9.82157C11.3134 18.4212 12.6013 17.3587 12.8838 15.8948C12.908 15.7693 12.9321 15.6438 12.9558 15.5181C13.0502 15.0197 13.4295 14.626 13.9222 14.5147C15.3644 14.1889 16.5587 13.6076 17.3762 12.8338C18.0625 12.1841 18.4406 11.4269 18.4406 10.7018C18.4406 10.2637 18.0983 9.90456 17.6613 9.88413C17.2311 9.86401 16.8987 9.49902 16.9188 9.06884C16.9389 8.63866 17.3039 8.30587 17.7341 8.32637C19.0048 8.38575 20.0001 9.42915 20.0001 10.7018C20.0001 11.8597 19.4489 13.0191 18.4482 13.9663C17.4648 14.8973 16.0865 15.5955 14.4532 15.9919C14.4405 16.0581 14.4278 16.1242 14.415 16.1903C13.9911 18.3866 12.0593 19.9807 9.82157 19.9807Z" fill="#1A94FF"/>
<path d="M11.5398 10.9748H4.21032C3.77968 10.9748 3.43059 10.6257 3.43059 10.195C3.43059 9.76437 3.77968 9.41528 4.21032 9.41528H11.5398C11.9705 9.41528 12.3196 9.76437 12.3196 10.195C12.3196 10.6257 11.9705 10.9748 11.5398 10.9748ZM8.35848 4.36446C8.67958 3.90449 8.82301 3.50667 8.80987 3.11243C8.7947 2.65808 8.59271 2.31297 8.44519 2.061C8.31314 1.83542 8.25988 1.73191 8.2653 1.61499C8.26729 1.57238 8.28784 1.44516 8.43599 1.1845C8.64878 0.810107 8.51778 0.334078 8.14335 0.121287C7.769 -0.0915027 7.29293 0.039532 7.08018 0.413923C6.84544 0.826949 6.72353 1.19623 6.70747 1.54298C6.68025 2.13285 6.92244 2.54662 7.09929 2.84877C7.16681 2.96409 7.24299 3.09419 7.25063 3.157C7.24591 3.17863 7.21901 3.27224 7.07971 3.47182C6.83324 3.82492 6.91967 4.31101 7.27274 4.55748C7.40868 4.65238 7.56432 4.69795 7.7184 4.69795C7.96464 4.69795 8.2069 4.58161 8.35848 4.36446ZM7.25161 3.15208C7.25161 3.15212 7.25161 3.15212 7.25161 3.15208V3.15208ZM3.91398 4.36446C4.23508 3.90449 4.37851 3.50667 4.36537 3.11243C4.35021 2.65808 4.14822 2.31297 4.00069 2.061C3.86864 1.83542 3.81539 1.73191 3.82081 1.61499C3.82279 1.57238 3.84334 1.44516 3.99149 1.1845C4.20428 0.810107 4.07328 0.334078 3.69886 0.121287C3.3245 -0.0915027 2.84844 0.039532 2.63569 0.413923C2.40095 0.826949 2.27903 1.19623 2.26297 1.54298C2.23576 2.13285 2.47794 2.54662 2.65479 2.84877C2.72231 2.96409 2.79849 3.09419 2.80614 3.157C2.80142 3.17863 2.77452 3.27224 2.63522 3.47182C2.38874 3.82492 2.47518 4.31101 2.82824 4.55748C2.96419 4.65238 3.11982 4.69795 3.2739 4.69795C3.52014 4.69795 3.7624 4.58161 3.91398 4.36446ZM2.80711 3.15208C2.80711 3.15212 2.80711 3.15212 2.80711 3.15208V3.15208ZM12.803 4.36446C13.1241 3.90449 13.2675 3.50667 13.2544 3.11243C13.2392 2.65808 13.0372 2.31297 12.8897 2.061C12.7576 1.83542 12.7044 1.73191 12.7098 1.61499C12.7118 1.57238 12.7323 1.44516 12.8805 1.1845C13.0933 0.810107 12.9623 0.334078 12.5878 0.121287C12.2135 -0.0915027 11.7374 0.039532 11.5247 0.413923C11.2899 0.826949 11.168 1.19623 11.152 1.54298C11.1248 2.13285 11.3669 2.54662 11.5438 2.84877C11.6113 2.96409 11.6875 3.09419 11.6951 3.157C11.6904 3.17863 11.6635 3.27224 11.5242 3.47182C11.2777 3.82492 11.3642 4.31101 11.7172 4.55748C11.8532 4.65238 12.0088 4.69795 12.1629 4.69795C12.4091 4.69795 12.6514 4.58161 12.803 4.36446ZM11.6961 3.15208C11.6961 3.15212 11.6961 3.15212 11.6961 3.15208V3.15208Z" fill="#1A94FF"/>
</g>
<defs>
<clipPath id="clip0_3_5032">
<rect width="20" height="20" fill="white"/>
</clipPath>
</defs>
</svg>
