<svg width="20" height="20" viewBox="0 0 20 20" fill="none" xmlns="http://www.w3.org/2000/svg">
<g clip-path="url(#clip0_3_5017)">
<path d="M16.0938 7.14844H10.9375C8.78359 7.14844 7.03125 8.90078 7.03125 11.0547V12.9688C7.03125 15.1227 8.78359 16.875 10.9375 16.875H16.0938C18.2477 16.875 20 15.1227 20 12.9688V11.0547C20 8.90078 18.2477 7.14844 16.0938 7.14844ZM18.4375 12.9688C18.4375 14.2611 17.3861 15.3125 16.0938 15.3125H10.9375C9.64516 15.3125 8.59375 14.2611 8.59375 12.9688V11.0547C8.59375 9.76234 9.64516 8.71094 10.9375 8.71094H16.0938C17.3861 8.71094 18.4375 9.76234 18.4375 11.0547V12.9688ZM19.2188 18.4375H6.32812C5.46656 18.4375 4.76562 17.7366 4.76562 16.875V7.78117C6.48332 7.55129 7.8125 6.07648 7.8125 4.29688V3.51562C7.8125 1.57711 6.23539 0 4.29688 0H3.51562C1.57711 0 0 1.57711 0 3.51562V4.29688C0 6.13008 1.41047 7.63977 3.20312 7.79844V16.875C3.20312 18.5981 4.605 20 6.32812 20H19.2188C19.6502 20 20 19.6502 20 19.2188C20 18.7873 19.6502 18.4375 19.2188 18.4375ZM1.5625 4.29688V3.51562C1.5625 2.43867 2.43867 1.5625 3.51562 1.5625H4.29688C5.37383 1.5625 6.25 2.43867 6.25 3.51562V4.29688C6.25 5.37383 5.37383 6.25 4.29688 6.25H3.51562C2.43867 6.25 1.5625 5.37383 1.5625 4.29688Z" fill="#1A94FF"/>
<path d="M15.3125 6.13281C14.881 6.13281 14.5312 5.78305 14.5312 5.35156C14.5312 4.77 14.0581 4.29687 13.4765 4.29687C12.8949 4.29687 12.4218 4.77 12.4218 5.35156C12.4218 5.78305 12.0721 6.13281 11.6406 6.13281C11.2091 6.13281 10.8593 5.78305 10.8593 5.35156C10.8593 3.90844 12.0334 2.73437 13.4765 2.73437C14.9196 2.73437 16.0937 3.90844 16.0937 5.35156C16.0937 5.78305 15.7439 6.13281 15.3125 6.13281ZM4.3542 4.54629L5.13545 3.99941C5.48893 3.75199 5.57491 3.26484 5.32749 2.91137C5.08006 2.55789 4.59295 2.47191 4.23944 2.71934L3.45819 3.26621C3.10471 3.51363 3.01874 4.00078 3.26616 4.35426C3.41815 4.57141 3.66053 4.68758 3.90686 4.68758C4.06159 4.68758 4.21788 4.64172 4.3542 4.54629Z" fill="#1A94FF"/>
</g>
<defs>
<clipPath id="clip0_3_5017">
<rect width="20" height="20" fill="white"/>
</clipPath>
</defs>
</svg>
