<svg width="20" height="20" viewBox="0 0 20 20" fill="none" xmlns="http://www.w3.org/2000/svg">
<g clip-path="url(#clip0_3_5025)">
<path d="M11.6784 19.2177C11.6784 18.7863 11.3287 18.4366 10.8972 18.4366H4.68699C2.96405 18.4366 1.56233 17.0349 1.56233 15.3119V9.88282C1.56233 8.15989 2.96405 6.75817 4.68699 6.75817H15.3108C16.5219 6.75817 17.6347 7.46805 18.1458 8.56664C18.3278 8.95781 18.7924 9.1274 19.1836 8.94539C19.5747 8.76342 19.7443 8.29878 19.5623 7.90761C18.7959 6.26025 17.1271 5.19584 15.3108 5.19584H4.68699C2.10258 5.19584 0 7.29842 0 9.88282V15.3119C0 17.8963 2.10258 19.9989 4.68699 19.9989H10.8972C11.3287 19.9989 11.6784 19.6492 11.6784 19.2177Z" fill="#1A94FF"/>
<path d="M12.5377 4.10221C12.1063 4.10221 11.7565 3.75248 11.7565 3.32104C11.7565 2.35189 10.9681 1.56342 9.9989 1.56342C9.02975 1.56342 8.24128 2.35189 8.24128 3.32104C8.24128 3.75248 7.89156 4.10221 7.46012 4.10221C7.02868 4.10221 6.67896 3.75248 6.67896 3.32104C6.67896 1.49042 8.16828 0.00109291 9.9989 0.00109291C11.8295 0.00109291 13.3189 1.49042 13.3189 3.32104C13.3189 3.75248 12.9691 4.10221 12.5377 4.10221Z" fill="#1A94FF"/>
</g>
<defs>
<clipPath id="clip0_3_5025">
<rect width="20" height="20" fill="white"/>
</clipPath>
</defs>
</svg>
