<svg width="20" height="18" viewBox="0 0 20 18" fill="none" xmlns="http://www.w3.org/2000/svg">
<path d="M15.0697 2.73952C15.4575 2.73952 15.778 3.02432 15.8287 3.39385L15.8357 3.49657L15.8356 15.4077L18.6912 12.5738C18.9896 12.2774 19.4746 12.2763 19.7744 12.5713C20.047 12.8395 20.0727 13.26 19.8509 13.5569L19.7769 13.6419L15.6125 17.7772C15.5874 17.8015 15.5618 17.8237 15.5349 17.8441L15.6125 17.7772C15.5749 17.8145 15.5344 17.8471 15.4916 17.875C15.4767 17.8842 15.4612 17.8936 15.4454 17.9024C15.4307 17.9112 15.4157 17.9189 15.4005 17.9261C15.3856 17.9326 15.3704 17.9392 15.355 17.9453C15.3354 17.9536 15.3153 17.9606 15.295 17.9668C15.283 17.9699 15.2708 17.9733 15.2584 17.9764C15.2363 17.9824 15.2142 17.9869 15.1919 17.9905C15.1814 17.9917 15.1705 17.9932 15.1595 17.9944C15.1343 17.9979 15.1094 17.9995 15.0844 18C15.0795 17.9995 15.0746 17.9996 15.0697 17.9996L15.0548 18C15.0298 17.9995 15.0049 17.9979 14.9801 17.995L15.0697 17.9996C15.028 17.9996 14.9871 17.9963 14.9471 17.9899C14.9251 17.9869 14.9029 17.9824 14.8809 17.9769C14.8693 17.9735 14.8577 17.9703 14.8461 17.9668C14.8242 17.9608 14.8024 17.9531 14.7809 17.9445C14.7691 17.9391 14.7577 17.9342 14.7465 17.9291C14.7289 17.9216 14.7112 17.9127 14.6938 17.903C14.6782 17.8936 14.6627 17.8842 14.6476 17.8743C14.6358 17.8673 14.6242 17.8593 14.6128 17.8509L14.6046 17.8441C14.5776 17.8237 14.5521 17.8015 14.5281 17.7778L14.5268 17.7772L10.3623 13.6419C10.0639 13.3456 10.065 12.8663 10.3648 12.5713C10.6374 12.3031 11.063 12.2797 11.3623 12.5003L11.448 12.5738L14.3037 15.4097L14.3038 3.49657C14.3038 3.07846 14.6467 2.73952 15.0697 2.73952ZM4.93027 0.000420212L4.94519 0C4.97015 0.00047397 4.99509 0.00214654 5.01991 0.0050177L4.93027 0.000420212C4.972 0.000420212 5.01294 0.00371808 5.05286 0.0100645C5.07469 0.0130137 5.0966 0.0174712 5.11833 0.0228827C5.1311 0.0265862 5.14412 0.0301979 5.15699 0.0341362C5.17711 0.0397404 5.19657 0.0465525 5.21578 0.0541649C5.22968 0.0602786 5.24374 0.0663551 5.25758 0.0728293C5.27403 0.0798587 5.29023 0.0881304 5.30617 0.097011C5.31982 0.105319 5.33334 0.113413 5.34657 0.121899C5.36019 0.129903 5.37383 0.139269 5.38721 0.149124L5.47324 0.222835L9.63768 4.35806C9.93611 4.65439 9.93499 5.13373 9.63518 5.4287C9.36262 5.69685 8.93705 5.72031 8.63771 5.49972L8.55198 5.42622L5.69553 2.58914L5.69621 14.5034C5.69621 14.9215 5.35329 15.2605 4.93027 15.2605C4.5425 15.2605 4.22204 14.9757 4.17132 14.6062L4.16433 14.5034L4.16365 2.59015L1.30879 5.42622C1.03749 5.69562 0.612034 5.72102 0.311669 5.5018L0.225592 5.4287C-0.0469616 5.16055 -0.0726654 4.74002 0.149126 4.44314L0.223089 4.35806L4.38753 0.222835L4.43263 0.181957C4.44322 0.173002 4.45407 0.164327 4.46515 0.155945L4.38753 0.222835C4.42511 0.185526 4.46563 0.152898 4.50837 0.124953C4.52328 0.115771 4.53878 0.106397 4.55463 0.0975646C4.56934 0.0887985 4.5843 0.0811068 4.59945 0.0739357C4.61441 0.067393 4.62958 0.060791 4.645 0.0546705C4.66459 0.0463901 4.68468 0.0393795 4.70499 0.0332214C4.71734 0.0299427 4.72999 0.0264476 4.74276 0.0232699C4.76334 0.0176839 4.78414 0.0134134 4.80506 0.0100029C4.81764 0.00844783 4.82996 0.00675211 4.84238 0.00534991C4.86603 0.00213941 4.89028 0.000512832 4.91456 2.00577e-05C4.91991 0.00047112 4.92509 0.000420212 4.93027 0.000420212Z" fill="#1A94FF"/>
</svg>
