<svg width="24" height="22" viewBox="0 0 24 22" fill="none" xmlns="http://www.w3.org/2000/svg">
<path d="M20.8333 16.976C20.5721 16.976 20.3098 16.9291 20.058 16.8338L4.14472 10.7891C2.92339 10.3266 1.95449 9.41553 1.41749 8.22397C0.880533 7.03245 0.839705 5.70313 1.30255 4.48086C1.30344 4.47852 1.30433 4.47613 1.30527 4.47378L2.24197 2.0593C2.42924 1.57662 2.97228 1.33714 3.45509 1.52436C3.93781 1.71162 4.1773 2.25477 3.99003 2.73748L3.05474 5.14827C2.77058 5.90122 2.79617 6.71975 3.12692 7.45363C3.45809 8.18853 4.0557 8.75052 4.80955 9.03594L20.7229 15.0807C20.8724 15.1373 20.9994 15.0608 21.0471 15.0253C21.1038 14.983 21.1972 14.8903 21.1865 14.7443C21.1035 13.6117 20.5406 12.8396 19.5132 12.4492L15.8009 11.0813C15.4454 10.9503 15.2037 10.6182 15.1884 10.2396L14.9472 4.29275C14.8661 3.37194 14.6674 2.69108 14.3564 2.26878C14.2023 2.05944 13.9929 2.06328 13.9101 2.07467C13.8234 2.08658 13.6728 2.13242 13.5862 2.303C13.5862 2.303 12.5675 7.17453 12.5501 7.22033C12.194 8.16074 11.2964 8.74091 10.3458 8.741C10.0691 8.741 9.78819 8.69193 9.51453 8.58828L5.19514 6.92989C4.71177 6.74431 4.47041 6.20202 4.65599 5.71864C4.84156 5.23531 5.384 4.99391 5.86719 5.17949L10.1826 6.83638C10.4087 6.92206 10.6647 6.81983 10.7746 6.60599C10.7746 6.60599 11.7931 1.73534 11.8105 1.68955C12.1155 0.884187 12.8052 0.333734 13.6553 0.217108C14.5064 0.100343 15.3536 0.460624 15.8664 1.15719C16.3946 1.87475 16.7056 2.85463 16.8171 4.15297C16.8184 4.16703 17.0365 9.53839 17.0365 9.53839L20.1657 10.6915C20.1683 10.6925 20.1709 10.6934 20.1735 10.6945C21.8954 11.3466 22.9193 12.7361 23.0565 14.6073C23.1113 15.3543 22.7792 16.0724 22.1683 16.5282C21.7726 16.8234 21.3048 16.976 20.8333 16.976Z" fill="#1A94FF"/>
<path d="M23.0625 21.8046H0.9375C0.419719 21.8046 0 21.3849 0 20.8671C0 20.3494 0.419719 19.9296 0.9375 19.9296H23.0625C23.5803 19.9296 24 20.3494 24 20.8671C24 21.3849 23.5803 21.8046 23.0625 21.8046Z" fill="#1A94FF"/>
</svg>
