<svg width="24" height="22" viewBox="0 0 24 22" fill="none" xmlns="http://www.w3.org/2000/svg">
<path d="M23.0624 21.2655H0.937615C0.419838 21.2655 0.00012207 20.8458 0.00012207 20.328C0.00012207 19.8102 0.419838 19.3905 0.937615 19.3905H23.0624C23.5802 19.3905 23.9999 19.8102 23.9999 20.328C23.9999 20.8458 23.5802 21.2655 23.0624 21.2655Z" fill="#1A94FF"/>
<path d="M5.6758 16.5817C5.24971 16.5817 4.821 16.5256 4.39842 16.4121C3.13623 16.073 2.08164 15.2627 1.42891 14.1304L0.127297 11.8933C-0.133091 11.4458 0.0186419 10.8719 0.466154 10.6115C0.913666 10.3512 1.48755 10.5028 1.74794 10.9504L3.05143 13.1907C3.45591 13.8924 4.10635 14.3922 4.88489 14.6013C5.66329 14.8105 6.4767 14.7039 7.17509 14.3013L21.9612 5.77793C22.1006 5.69754 22.1219 5.55083 22.1245 5.49148C22.1277 5.42084 22.1152 5.28978 21.9954 5.20559C21.0666 4.55268 20.1127 4.49924 19.1602 5.0466L15.7351 7.07252C15.4083 7.26583 14.9972 7.24305 14.694 7.01458L9.93919 3.43481C9.17523 2.91441 8.52245 2.63696 7.99877 2.61015C7.73866 2.59646 7.60948 2.76132 7.56584 2.83257C7.52009 2.90724 7.46018 3.05283 7.53738 3.22781L10.6035 7.02302C10.6343 7.06113 10.6621 7.10153 10.6865 7.14395C11.0006 7.68878 11.0837 8.32332 10.9205 8.93063C10.7579 9.53606 10.3699 10.0422 9.82777 10.3565L5.8678 12.6976C5.42202 12.961 4.8472 12.8133 4.58367 12.3676C4.32014 11.9219 4.46789 11.347 4.91357 11.0835L8.87729 8.74022C8.88025 8.73849 8.8832 8.73675 8.8862 8.73507C8.99715 8.67113 9.07651 8.56782 9.10975 8.44416C9.1382 8.33813 9.12986 8.22812 9.08664 8.12893L6.02099 4.33438C5.99019 4.29627 5.96249 4.25587 5.93802 4.21349C5.5079 3.46739 5.51873 2.58507 5.96694 1.85326C6.41558 1.12075 7.2304 0.693162 8.09482 0.737599C8.98459 0.783208 9.9399 1.16313 11.0152 1.89911C11.0269 1.90707 11.0384 1.91532 11.0496 1.92381L15.3205 5.13927L18.2106 3.4298C18.2136 3.42801 18.2166 3.42623 18.2197 3.4245C19.8149 2.50496 21.5387 2.59257 23.0737 3.67158C23.6864 4.10226 24.0318 4.814 23.9977 5.57548C23.9632 6.34216 23.552 7.02508 22.8976 7.40228L8.11155 15.9257C7.35837 16.3599 6.5225 16.5817 5.6758 16.5817Z" fill="#1A94FF"/>
</svg>
